<svg width="988" height="776" viewBox="0 0 988 776" fill="none" xmlns="http://www.w3.org/2000/svg">
<path d="M641.806 65.5348L690.27 26.4504" stroke="black" stroke-width="5" stroke-linecap="round"/>
<path d="M354.145 275.809C360.007 272.682 363.525 267.992 365.479 262.52C369.623 250.918 372.763 245.248 377.529 242.414C382.296 239.579 411.882 221.761 409.944 235.8C409.303 240.447 403.741 241.083 397.233 243.669" stroke="black" stroke-width="5" stroke-linecap="round"/>
<path d="M397.919 206.239C403.6 195.549 412.492 181.688 418.194 173.408C422.542 167.095 426.598 159.181 418.194 146.049C407.69 129.634 361.18 80.3873 395.965 77.6514C423.793 75.4627 478.189 89.3765 484.296 77.6514C497.324 52.6374 522.833 3.70363 539.405 8.08109C560.119 13.5529 564.347 92.503 575.362 96.0206C586.378 99.5382 669.556 124.161 645.323 143.313C621.091 162.464 582.737 173.408 584.352 187.478C585.246 195.272 586.026 207.974 586.544 221.872M386.666 237.897C384.668 250.422 388.735 258.605 404.179 256.375C452.065 249.461 488.27 229.872 504.622 241.395C520.973 252.918 584.042 309.382 586.378 282.879C586.735 278.825 586.962 274.751 587.088 268.774" stroke="black" stroke-width="5" stroke-linecap="round"/>
<path d="M646.887 165.591C656.621 155.023 658.421 144.372 653.431 136.628C652.997 135.955 651.972 136.109 651.578 136.806C644.504 149.31 602.512 167.67 586.767 179.996C586.719 180.035 586.677 180.072 586.64 180.122C585.718 181.358 584.13 187.679 584.742 189.823C585.349 191.946 586.249 210.413 586.66 220.201C586.681 220.708 587.077 221.115 587.579 221.191C591.05 221.721 597.3 224.194 605.355 233.984C606.015 234.786 607.41 234.213 607.292 233.181C605.734 219.587 605.319 199.623 607.802 196.076C612.62 189.194 618.746 186.696 625.39 182.397C627.735 180.879 636.497 176.87 646.887 165.591Z" fill="black"/>
<path d="M576.65 312.018C583.316 316.23 596.552 317.517 600.016 312.018C601.745 309.274 602.854 301.44 603.518 291.052C599.779 290.114 595.295 273.464 587.478 270.337C587.319 280.004 586.802 285.396 585.124 288.283C575.722 304.456 510.482 244.151 500.098 239.745C490.325 235.598 424.913 253.607 406.426 257.046C391.637 259.797 386.941 251.498 384.63 248.059C385.412 255.094 391.801 274.038 401.078 276.016C409.158 277.738 494.783 253.02 503.131 259.238C528.313 277.993 571.14 308.537 576.65 312.018Z" fill="black"/>
<path d="M375.641 242.197C379.277 235.817 392.078 216.509 411.598 223.299" stroke="black" stroke-width="5" stroke-linecap="round"/>
<path d="M374.468 244.542C377.91 234.035 393.451 206.959 408.472 213.466" stroke="black" stroke-width="5" stroke-linecap="round"/>
<path d="M381.113 230.471C383.327 210.636 389.423 191.085 397.354 197.225C398.455 198.361 400.163 201.829 398.18 206.604" stroke="black" stroke-width="5" stroke-linecap="round"/>
<path d="M591.777 237.177C583.631 234.007 566.599 230.886 563.637 243.759" stroke="black" stroke-width="5" stroke-linecap="round"/>
<path d="M605.848 255.485C591.486 246.583 564.895 235.645 566.868 252.803" stroke="black" stroke-width="5" stroke-linecap="round"/>
<path d="M598.581 262.116C587.556 256.05 566.436 247.604 568.463 261.292C568.533 261.763 568.946 262.114 569.422 262.133C576.255 262.404 590.002 266.074 596.333 279.184C602.927 292.838 609.072 297.736 611.32 298.478" stroke="black" stroke-width="5" stroke-linecap="round"/>
<path d="M691.052 105.4L719.193 97.5835" stroke="black" stroke-width="5" stroke-linecap="round"/>
<path d="M375.25 30.3591L349.454 3" stroke="black" stroke-width="5" stroke-linecap="round"/>
<path d="M333.039 65.5348L258.779 44.4292" stroke="black" stroke-width="5" stroke-linecap="round"/>
<path d="M328.349 124.944L275.194 131.197" stroke="black" stroke-width="5" stroke-linecap="round"/>
<path d="M384.61 439.156C359.836 407.35 361.758 361.005 367.622 333.897C371.214 321.718 391.23 262.152 348.421 290.311C328.703 303.281 245.049 480.28 416.41 514.408C416.964 514.518 417.356 515.073 417.239 515.625C410.828 545.969 425.578 576.056 417.46 618.577" stroke="black" stroke-width="5" stroke-linecap="round"/>
<path d="M380.722 441.136C389.06 439.572 440.912 421.661 460.454 444.647" stroke="black" stroke-width="5" stroke-linecap="round"/>
<path d="M529.242 449.255C558.165 432.928 586.696 451.35 612.101 456.379" stroke="black" stroke-width="5" stroke-linecap="round"/>
<path d="M605.848 454.813C624.376 437.332 640.522 381.22 622.462 318.121C618.959 305.882 619.978 275.017 643.222 288.765C672.554 306.115 761.397 514.073 564.57 515C563.923 515.003 563.391 515.606 563.539 516.236C570.659 546.602 571.909 581.34 571.651 617.698" stroke="black" stroke-width="5" stroke-linecap="round"/>
<path d="M627.735 271.119C618.837 253.651 600.251 220.124 586.905 221.944C584.236 222.308 577.887 224.127 575.362 228.131" stroke="black" stroke-width="5" stroke-linecap="round"/>
<path d="M553.988 345.408C548.273 365.999 545.407 367.823 537.095 376.945C537.095 367.93 535.545 352.798 535.545 346.496C508.307 346.496 485.324 335.348 477.227 329.774C477.522 348.677 459.841 361.037 459.841 361.037C459.841 361.037 462.376 368.672 463.827 385.757C464.992 399.427 461.651 396.785 459.841 393.755C454.628 376.887 446.084 381.395 442.456 385.757C398.012 313.349 466.362 299.359 479.403 300.691C489.256 292.258 502.996 285.648 512.652 284.679C547.494 281.183 563.258 312.021 553.988 345.408Z" fill="black"/>
<path d="M459.672 407.088C464.406 435.685 496.162 456.25 519.082 433.083C542.002 409.917 537.413 367.512 534.965 347.724" stroke="black" stroke-width="5" stroke-linecap="round"/>
<path d="M517.289 452.447C519.602 445.516 517.495 440.852 515.439 439.964C503.102 451.693 484.39 447.339 477.45 440.23C474.983 442.576 476.422 449.515 477.45 451.647C490.815 467.002 509.835 458.4 517.289 452.447Z" fill="black"/>
<path d="M468.271 492.337L469.365 490.639C475.091 481.752 486.335 478.204 496.124 482.195V482.195C504.923 485.783 515.031 483.307 521.175 476.059L529.243 466.541" stroke="black" stroke-width="5" stroke-linecap="round"/>
<path d="M441.847 383.682C439.095 390.488 441.677 405.569 459.672 405.569" stroke="black" stroke-width="5" stroke-linecap="round"/>
<path d="M450.422 388.372C450.011 389.501 450.34 392.177 454.982 393.844" stroke="black" stroke-width="5" stroke-linecap="round"/>
<path d="M534.714 402.443C540.998 399.943 545.433 390.687 543.727 375.865" stroke="black" stroke-width="5" stroke-linecap="round"/>
<path d="M517.79 384.002C519.64 382.855 520.147 380.326 518.924 378.353C517.7 376.38 515.209 375.711 513.359 376.858C511.51 378.005 511.002 380.534 512.226 382.507C513.449 384.48 515.941 385.149 517.79 384.002Z" fill="black"/>
<path d="M485.662 387.027C487.884 385.955 488.97 383.604 488.088 381.774C487.205 379.944 484.689 379.329 482.467 380.401C480.245 381.472 479.16 383.824 480.042 385.653C480.924 387.483 483.44 388.098 485.662 387.027Z" fill="black"/>
<path d="M475.306 374.301C476.164 372.319 479.871 368.654 487.813 369.843" stroke="black" stroke-width="5" stroke-linecap="round"/>
<path d="M512.827 369.612C514.603 369.022 519.435 368.196 524.553 369.612" stroke="black" stroke-width="5" stroke-linecap="round"/>
<path d="M499.131 382.9C498.592 387.63 498.216 397.224 501.102 397.752" stroke="black" stroke-width="5" stroke-linecap="round"/>
<path d="M501.884 420.864C496.349 422.471 496.699 418.048 492.503 414.167" stroke="black" stroke-width="5" stroke-linecap="round"/>
<path d="M737.647 771.734L708.05 656.218C702.382 634.098 682.449 618.628 659.614 618.628H328.673C305.693 618.628 285.672 634.291 280.142 656.596L251.282 773" stroke="black" stroke-width="5" stroke-linecap="round"/>
<path d="M269.881 687.444H71.2878C50.9088 687.444 32.5689 699.813 24.9317 718.706L2.98535 773" stroke="black" stroke-width="5" stroke-linecap="round"/>
<path d="M729.278 725.573H932.854C953.208 725.573 971.531 737.911 979.184 756.772L985.015 771.14" stroke="black" stroke-width="5" stroke-linecap="round"/>
</svg>
