<svg width="1204" height="770" viewBox="0 0 1204 770" fill="none" xmlns="http://www.w3.org/2000/svg">
<path d="M1103.56 454.974C1111.19 453.957 1127.58 448.155 1132.06 433.091" stroke="white" stroke-width="5" stroke-linecap="round"/>
<path d="M1078.62 442.76C1083.71 442.93 1095.42 440.419 1101.53 429.02" stroke="white" stroke-width="5" stroke-linecap="round"/>
<path d="M1055.72 424.439C1063.87 422.748 1081.58 417.481 1087.28 409.943" stroke="white" stroke-width="5" stroke-linecap="round"/>
<path d="M1129.37 480.567C1078.17 492.001 1030.43 441.002 1011.52 412.067C1010.81 410.983 1011.34 409.546 1012.56 409.135L1093.19 382.096C1093.93 381.848 1094.74 382.051 1095.28 382.608C1122.14 410.108 1172.07 422.207 1198.32 425.495C1200.15 425.723 1200.79 428.096 1199.31 429.187L1130.11 480.228C1129.89 480.391 1129.64 480.508 1129.37 480.567Z" stroke="white" stroke-width="5" stroke-linecap="round"/>
<path d="M747.551 309.45C705.965 307.729 660.623 329.58 652.892 335.378C646.53 340.15 647.418 347.253 648.727 350.426C648.788 350.574 648.871 350.71 648.968 350.836L725.07 449.261C725.129 449.338 725.182 449.418 725.231 449.501C726.836 452.195 731.683 455.467 738.9 447.849C750.255 435.864 798.485 405.467 859.897 405.981C861.79 405.997 862.721 403.615 861.288 402.379L802.515 351.657" stroke="white" stroke-width="5" stroke-linecap="round"/>
<path d="M568.921 394.494C588.769 383.726 592.84 407.726 603.527 405.69C617.282 403.07 594.367 374.137 572.483 372.61C554.976 371.389 520.404 398.905 505.306 412.815C477.824 439.476 390.697 468.759 262.042 372.61" stroke="white" stroke-width="5" stroke-linecap="round"/>
<path d="M247.687 195.579C262.287 151.824 248.621 123.721 239.963 115.139C268.309 141.486 303.469 137.134 317.505 131.665L316.463 152.407C338.37 160.03 350.997 130.757 354.574 115.167C360.091 91.1142 340.704 55.171 285.252 54.514C229.8 53.8581 190.506 90.6706 177.79 109.159C142.595 89.7812 95.3793 108.433 76.1709 120.182C56.2943 132.391 10.9392 172.815 21.7711 232.602C36.3852 313.264 125.884 315.431 141.499 311.562C195.453 298.192 229.436 250.274 247.687 195.579Z" fill="white"/>
<path d="M322.203 204.768C319.289 212.044 314.964 217.828 310.447 221.333C305.878 224.879 301.531 225.824 298.209 224.492C294.888 223.161 292.396 219.475 291.539 213.754C290.691 208.098 291.552 200.927 294.467 193.651C297.38 186.375 301.706 180.592 306.223 177.087C310.792 173.54 315.138 172.596 318.46 173.927C321.781 175.258 324.274 178.944 325.131 184.666C325.979 190.322 325.117 197.492 322.203 204.768Z" stroke="white" stroke-width="5"/>
<path d="M313.039 204.444C315.912 202.665 316.799 198.893 315.019 196.02C313.24 193.147 309.469 192.261 306.596 194.04C303.723 195.82 302.836 199.591 304.615 202.464C306.395 205.337 310.166 206.224 313.039 204.444Z" fill="white"/>
<path d="M249.259 191.944L292.107 196.915" stroke="white" stroke-width="5" stroke-linecap="round"/>
<path d="M321.194 154.573C323.043 162.598 329.809 180.783 338.684 192.174C347.761 203.824 345.981 215.493 336.854 222.03L322.6 232.34C317.518 280.976 300.116 313.739 238.505 316.236" stroke="white" stroke-width="5" stroke-linecap="round"/>
<path d="M155.839 359.872L197.616 379.51C198.973 380.148 200.497 379.085 200.386 377.579L197.228 334.99C197.111 333.411 198.778 332.35 200.142 333.135L229.488 350.039" stroke="white" stroke-width="5" stroke-linecap="round"/>
<path d="M219.514 316.167C222.364 319.052 226.642 323.844 231.018 329.588C237.027 337.472 243.223 347.152 246.174 356.156" stroke="white" stroke-width="5" stroke-linecap="round"/>
<path d="M233.924 383.153C236.626 382.358 238.042 379.085 237.087 375.843C236.132 372.601 233.169 370.618 230.467 371.414C227.766 372.209 226.35 375.482 227.304 378.724C228.259 381.966 231.223 383.949 233.924 383.153Z" fill="white"/>
<path d="M248.35 408.672C250.781 407.956 251.979 404.747 251.024 401.506C250.069 398.264 247.324 396.216 244.893 396.932C242.462 397.648 241.265 400.857 242.219 404.098C243.174 407.34 245.919 409.388 248.35 408.672Z" fill="white"/>
<path d="M285.783 263.553C284.222 267.27 283.978 275.662 295.489 279.496" stroke="white" stroke-width="5" stroke-linecap="round"/>
<path d="M502.913 605.118C501.028 593.084 500.533 585.39 500.883 579.667C500.958 578.453 497.897 577.28 497.203 578.279C484.745 596.214 469.648 604.765 461.877 609.481C461.655 609.615 461.504 609.816 461.44 610.068C457.812 624.203 452.613 656.317 470.709 664.613C493.536 675.076 506.999 631.188 502.913 605.118Z" fill="white"/>
<path d="M438.329 550.5C445.106 549.491 459.25 546.366 464.012 564.943C469.964 588.163 439.171 666.746 477.224 665.759C507.667 664.97 506.601 607.292 501.743 577.624" stroke="white" stroke-width="5" stroke-linecap="round"/>
<path d="M528.323 444.796C534.743 466.885 527.271 489.604 515.993 486.528C509.236 484.685 507.2 474.233 506.588 465.153C505.482 449.376 504.797 416.093 510.904 409.172" stroke="white" stroke-width="5" stroke-linecap="round"/>
<path d="M507.85 466.68L507.85 466.68C513.136 463.287 525.662 451.922 528.716 444.288C535.332 466.679 528.638 488.896 515.993 486.527C507.85 485.001 507.85 475.332 507.85 466.68Z" fill="white"/>
<path d="M442.939 665.782C327.53 609.268 124.005 798.854 173.552 422.169" stroke="white" stroke-width="5" stroke-linecap="round"/>
<path d="M139.927 373.935C45.8291 481 79.9139 595.215 13.8291 687" stroke="white" stroke-width="5" stroke-linecap="round"/>
<path d="M579.608 374.137C594.367 369.557 600.983 374.138 610.652 396.021" stroke="white" stroke-width="5" stroke-linecap="round"/>
<path d="M555.18 396.172C568.208 394.951 579.719 398.716 584.697 403.296C597.42 415.001 586.224 420.091 568.412 412.966C557.872 408.75 559.479 425.77 540.172 425.5C537.683 425.465 535.363 426.962 534.564 429.32C530.495 441.325 521.088 460.45 507.341 465.153" stroke="white" stroke-width="5" stroke-linecap="round"/>
<path d="M551.108 496.197C553.314 493.483 556.466 491.101 558.233 490.091C561.796 488.055 575.537 495.179 566.885 482.965C556.568 468.4 521.082 493.313 505.815 509.938C465.101 546.58 352.264 600.142 281.829 535" stroke="white" stroke-width="5" stroke-linecap="round"/>
<path d="M544.492 498.742C552.805 497.893 569.327 498.029 568.92 505.358" stroke="white" stroke-width="5" stroke-linecap="round"/>
<path d="M549.582 508.411C557.385 505.866 572.89 503.22 572.483 512.991" stroke="white" stroke-width="5" stroke-linecap="round"/>
<path d="M554.671 516.044C562.814 512.652 577.063 511.464 579.608 525.205C579.947 528.598 578.896 533.959 571.974 528.259C565.053 522.559 556.537 527.919 553.144 531.312C545.51 538.437 527.596 552.992 517.011 554.214C504.797 572.365 476.603 608.159 461.539 606.124" stroke="white" stroke-width="5" stroke-linecap="round"/>
<path d="M294.613 511.286C398.432 578.462 421.334 501.108 499.708 501.108" stroke="white" stroke-width="5" stroke-linecap="round"/>
<path d="M561.796 652.435L911.558 579.147C912.801 578.887 913.968 579.835 913.968 581.104V588.732C913.968 589.674 913.311 590.489 912.39 590.687L552.512 668.199C551.266 668.468 550.091 667.518 550.091 666.244V655.998L540.93 545.053" stroke="white" stroke-width="5" stroke-linecap="round"/>
<path d="M552.251 670.426L534.045 674.067C533.406 674.195 532.818 673.688 532.85 673.038L538.767 551.968C538.827 550.735 540.631 550.685 540.76 551.913L553.049 669.342C553.103 669.855 552.757 670.325 552.251 670.426Z" fill="white"/>
<path d="M566.885 623.427L900.881 555.213C902.12 554.96 903.281 555.907 903.281 557.172V578.642" stroke="white" stroke-width="5" stroke-linecap="round"/>
<path d="M539.912 481.438L534.823 432.073" stroke="white" stroke-width="5" stroke-linecap="round"/>
<path d="M742.971 464.135C747.551 457.858 763.226 443.269 789.283 435.127C821.854 424.948 899.21 387.288 904.808 464.135C905.147 484.153 904.808 500.777 898.192 553.705" stroke="white" stroke-width="5" stroke-linecap="round"/>
<path d="M705.356 468.206C705.356 468.764 704.869 469.89 702.68 471.025C700.617 472.095 697.592 472.831 694.115 472.831C690.637 472.831 687.613 472.095 685.549 471.025C683.361 469.89 682.874 468.764 682.874 468.206C682.874 467.648 683.361 466.522 685.549 465.388C687.613 464.318 690.637 463.582 694.115 463.582C697.592 463.582 700.617 464.318 702.68 465.388C704.869 466.522 705.356 467.648 705.356 468.206Z" stroke="white" stroke-width="5"/>
<path d="M695.177 452.939C695.177 453.497 694.69 454.623 692.502 455.758C690.439 456.827 687.414 457.564 683.937 457.564C680.459 457.564 677.435 456.827 675.371 455.758C673.183 454.623 672.696 453.497 672.696 452.939C672.696 452.381 673.183 451.255 675.371 450.12C677.435 449.05 680.459 448.314 683.937 448.314C687.414 448.314 690.439 449.05 692.502 450.12C694.69 451.255 695.177 452.381 695.177 452.939Z" stroke="white" stroke-width="5"/>
<path d="M684.999 437.671C684.999 438.229 684.512 439.355 682.323 440.49C680.26 441.56 677.235 442.296 673.758 442.296C670.28 442.296 667.256 441.56 665.192 440.49C663.004 439.355 662.517 438.229 662.517 437.671C662.517 437.113 663.004 435.987 665.192 434.853C667.256 433.783 670.28 433.046 673.758 433.046C677.235 433.046 680.26 433.783 682.323 434.853C684.512 435.987 684.999 437.113 684.999 437.671Z" stroke="white" stroke-width="5"/>
<path d="M674.821 422.912C674.821 423.334 674.442 424.332 672.441 425.372C670.562 426.349 667.793 427.028 664.598 427.028C661.402 427.028 658.633 426.349 656.754 425.372C654.753 424.332 654.375 423.334 654.375 422.912C654.375 422.491 654.753 421.493 656.754 420.452C658.633 419.475 661.402 418.796 664.598 418.796C667.793 418.796 670.562 419.475 672.441 420.452C674.442 421.493 674.821 422.491 674.821 422.912Z" stroke="white" stroke-width="5"/>
<path d="M664.642 408.154C664.642 408.439 664.372 409.309 662.557 410.256C660.864 411.139 658.35 411.761 655.437 411.761C652.524 411.761 650.011 411.139 648.317 410.256C646.502 409.309 646.232 408.439 646.232 408.154C646.232 407.869 646.502 406.999 648.317 406.052C650.011 405.168 652.524 404.547 655.437 404.547C658.35 404.547 660.864 405.168 662.557 406.052C664.372 406.999 664.642 407.869 664.642 408.154Z" stroke="white" stroke-width="5"/>
<path d="M654.464 393.395C654.464 393.545 654.3 394.287 652.673 395.139C651.164 395.929 648.907 396.493 646.276 396.493C643.646 396.493 641.388 395.929 639.879 395.139C638.252 394.287 638.089 393.545 638.089 393.395C638.089 393.245 638.252 392.503 639.879 391.651C641.388 390.861 643.646 390.297 646.276 390.297C648.907 390.297 651.164 390.861 652.673 391.651C654.3 392.503 654.464 393.245 654.464 393.395Z" stroke="white" stroke-width="5"/>
<path d="M679.91 494.67C679.91 495.228 679.423 496.354 677.235 497.489C675.171 498.559 672.147 499.295 668.669 499.295C665.191 499.295 662.167 498.559 660.104 497.489C657.915 496.354 657.428 495.228 657.428 494.67C657.428 494.112 657.915 492.986 660.104 491.852C662.167 490.782 665.191 490.045 668.669 490.045C672.147 490.045 675.171 490.782 677.235 491.852C679.423 492.986 679.91 494.112 679.91 494.67Z" stroke="white" stroke-width="5"/>
<path d="M670.749 479.402C670.749 479.961 670.262 481.086 668.074 482.221C666.01 483.291 662.986 484.027 659.508 484.027C656.031 484.027 653.006 483.291 650.943 482.221C648.755 481.086 648.268 479.961 648.268 479.402C648.268 478.844 648.755 477.719 650.943 476.584C653.006 475.514 656.031 474.778 659.508 474.778C662.986 474.778 666.01 475.514 668.074 476.584C670.262 477.719 670.749 478.844 670.749 479.402Z" stroke="white" stroke-width="5"/>
<path d="M663.624 464.135C663.624 464.693 663.137 465.819 660.949 466.954C658.885 468.024 655.861 468.76 652.383 468.76C648.906 468.76 645.881 468.024 643.818 466.954C641.63 465.819 641.143 464.693 641.143 464.135C641.143 463.577 641.63 462.451 643.818 461.316C645.881 460.246 648.906 459.51 652.383 459.51C655.861 459.51 658.885 460.246 660.949 461.316C663.137 462.451 663.624 463.577 663.624 464.135Z" stroke="white" stroke-width="5"/>
<path d="M655.482 448.358C655.482 448.78 655.104 449.778 653.102 450.819C651.223 451.795 648.454 452.474 645.259 452.474C642.063 452.474 639.294 451.795 637.416 450.819C635.414 449.778 635.036 448.78 635.036 448.358C635.036 447.937 635.414 446.939 637.416 445.898C639.294 444.921 642.063 444.242 645.259 444.242C648.454 444.242 651.223 444.921 653.102 445.898C655.104 446.939 655.482 447.937 655.482 448.358Z" stroke="white" stroke-width="5"/>
<path d="M647.339 433.6C647.339 433.885 647.069 434.755 645.254 435.702C643.56 436.585 641.047 437.207 638.134 437.207C635.221 437.207 632.707 436.585 631.013 435.702C629.199 434.755 628.929 433.885 628.929 433.6C628.929 433.315 629.199 432.445 631.013 431.498C632.707 430.614 635.221 429.993 638.134 429.993C641.047 429.993 643.56 430.614 645.254 431.498C647.069 432.445 647.339 433.315 647.339 433.6Z" stroke="white" stroke-width="5"/>
<path d="M640.214 419.859C640.214 420.009 640.051 420.75 638.424 421.603C636.915 422.393 634.657 422.957 632.027 422.957C629.396 422.957 627.138 422.393 625.63 421.603C624.002 420.75 623.839 420.009 623.839 419.859C623.839 419.709 624.002 418.967 625.63 418.115C627.138 417.325 629.396 416.761 632.027 416.761C634.657 416.761 636.915 417.325 638.424 418.115C640.051 418.967 640.214 419.709 640.214 419.859Z" stroke="white" stroke-width="5"/>
<path d="M635.125 407.645C635.125 407.794 634.962 408.536 633.334 409.389C631.826 410.179 629.568 410.743 626.937 410.743C624.307 410.743 622.049 410.179 620.54 409.389C618.913 408.536 618.75 407.794 618.75 407.645C618.75 407.495 618.913 406.753 620.54 405.901C622.049 405.111 624.307 404.547 626.937 404.547C629.568 404.547 631.826 405.111 633.334 405.901C634.962 406.753 635.125 407.495 635.125 407.645Z" stroke="white" stroke-width="5"/>
<path d="M630.036 395.431C630.036 395.581 629.873 396.322 628.246 397.175C626.737 397.965 624.479 398.529 621.848 398.529C619.218 398.529 616.96 397.965 615.451 397.175C613.824 396.322 613.661 395.581 613.661 395.431C613.661 395.281 613.824 394.539 615.451 393.687C616.96 392.897 619.218 392.333 621.848 392.333C624.479 392.333 626.737 392.897 628.246 393.687C629.873 394.539 630.036 395.281 630.036 395.431Z" stroke="white" stroke-width="5"/>
<path d="M650.392 518.08C650.392 518.639 649.905 519.764 647.717 520.899C645.653 521.969 642.629 522.705 639.151 522.705C635.674 522.705 632.65 521.969 630.586 520.899C628.398 519.764 627.911 518.639 627.911 518.08C627.911 517.522 628.398 516.396 630.586 515.262C632.65 514.192 635.674 513.456 639.151 513.456C642.629 513.456 645.653 514.192 647.717 515.262C649.905 516.396 650.392 517.522 650.392 518.08Z" stroke="white" stroke-width="5"/>
<path d="M645.303 499.759C645.303 500.317 644.816 501.443 642.628 502.578C640.564 503.648 637.54 504.384 634.062 504.384C630.585 504.384 627.56 503.648 625.497 502.578C623.308 501.443 622.821 500.317 622.821 499.759C622.821 499.201 623.308 498.075 625.497 496.941C627.56 495.871 630.585 495.135 634.062 495.135C637.54 495.135 640.564 495.871 642.628 496.941C644.816 498.075 645.303 499.201 645.303 499.759Z" stroke="white" stroke-width="5"/>
<path d="M639.196 482.456C639.196 483.014 638.709 484.14 636.521 485.275C634.457 486.345 631.433 487.081 627.955 487.081C624.478 487.081 621.453 486.345 619.39 485.275C617.201 484.14 616.714 483.014 616.714 482.456C616.714 481.898 617.201 480.772 619.39 479.638C621.453 478.568 624.478 477.831 627.955 477.831C631.433 477.831 634.457 478.568 636.521 479.638C638.709 480.772 639.196 481.898 639.196 482.456Z" stroke="white" stroke-width="5"/>
<path d="M633.089 466.679C633.089 467.101 632.711 468.099 630.709 469.14C628.83 470.117 626.062 470.795 622.866 470.795C619.671 470.795 616.902 470.117 615.023 469.14C613.021 468.099 612.643 467.101 612.643 466.679C612.643 466.258 613.021 465.26 615.023 464.219C616.902 463.242 619.671 462.563 622.866 462.563C626.062 462.563 628.83 463.242 630.709 464.219C632.711 465.26 633.089 466.258 633.089 466.679Z" stroke="white" stroke-width="5"/>
<path d="M625.964 451.921C625.964 452.206 625.694 453.076 623.879 454.023C622.185 454.907 619.672 455.528 616.759 455.528C613.846 455.528 611.332 454.907 609.638 454.023C607.824 453.076 607.554 452.206 607.554 451.921C607.554 451.636 607.824 450.766 609.638 449.819C611.332 448.935 613.846 448.314 616.759 448.314C619.672 448.314 622.185 448.935 623.879 449.819C625.694 450.766 625.964 451.636 625.964 451.921Z" stroke="white" stroke-width="5"/>
<path d="M618.839 438.18C618.839 438.33 618.676 439.072 617.049 439.924C615.54 440.714 613.283 441.278 610.652 441.278C608.022 441.278 605.764 440.714 604.255 439.924C602.628 439.072 602.465 438.33 602.465 438.18C602.465 438.03 602.628 437.289 604.255 436.436C605.764 435.646 608.022 435.082 610.652 435.082C613.283 435.082 615.54 435.646 617.049 436.436C618.676 437.289 618.839 438.03 618.839 438.18Z" stroke="white" stroke-width="5"/>
<path d="M613.75 425.966C613.75 426.116 613.587 426.858 611.96 427.71C610.451 428.5 608.193 429.064 605.563 429.064C602.932 429.064 600.675 428.5 599.166 427.71C597.539 426.858 597.375 426.116 597.375 425.966C597.375 425.816 597.539 425.075 599.166 424.222C600.675 423.432 602.932 422.868 605.563 422.868C608.193 422.868 610.451 423.432 611.96 424.222C613.587 425.075 613.75 425.816 613.75 425.966Z" stroke="white" stroke-width="5"/>
<path d="M608.661 413.752C608.661 413.902 608.498 414.643 606.871 415.496C605.362 416.286 603.104 416.85 600.473 416.85C597.843 416.85 595.585 416.286 594.076 415.496C592.449 414.643 592.286 413.902 592.286 413.752C592.286 413.602 592.449 412.86 594.076 412.008C595.585 411.218 597.843 410.654 600.473 410.654C603.104 410.654 605.362 411.218 606.871 412.008C608.498 412.86 608.661 413.602 608.661 413.752Z" stroke="white" stroke-width="5"/>
<path d="M617.822 527.241C617.822 527.799 617.335 528.925 615.146 530.06C613.083 531.13 610.058 531.866 606.581 531.866C603.103 531.866 600.079 531.13 598.015 530.06C595.827 528.925 595.34 527.799 595.34 527.241C595.34 526.683 595.827 525.557 598.015 524.422C600.079 523.352 603.103 522.616 606.581 522.616C610.058 522.616 613.083 523.352 615.146 524.422C617.335 525.557 617.822 526.683 617.822 527.241Z" stroke="white" stroke-width="5"/>
<path d="M612.732 508.92C612.732 509.478 612.245 510.604 610.057 511.738C607.993 512.808 604.969 513.545 601.491 513.545C598.014 513.545 594.989 512.808 592.926 511.738C590.738 510.604 590.25 509.478 590.25 508.92C590.25 508.362 590.738 507.236 592.926 506.101C594.989 505.031 598.014 504.295 601.491 504.295C604.969 504.295 607.993 505.031 610.057 506.101C612.245 507.236 612.732 508.362 612.732 508.92Z" stroke="white" stroke-width="5"/>
<path d="M606.625 491.617C606.625 492.175 606.138 493.301 603.95 494.435C601.886 495.505 598.862 496.241 595.384 496.241C591.907 496.241 588.882 495.505 586.819 494.435C584.631 493.301 584.144 492.175 584.144 491.617C584.144 491.059 584.631 489.933 586.819 488.798C588.882 487.728 591.907 486.992 595.384 486.992C598.862 486.992 601.886 487.728 603.95 488.798C606.138 489.933 606.625 491.059 606.625 491.617Z" stroke="white" stroke-width="5"/>
<path d="M600.518 475.84C600.518 476.261 600.14 477.259 598.138 478.3C596.26 479.277 593.491 479.956 590.295 479.956C587.1 479.956 584.331 479.277 582.452 478.3C580.45 477.259 580.072 476.261 580.072 475.84C580.072 475.419 580.45 474.421 582.452 473.38C584.331 472.403 587.1 471.724 590.295 471.724C593.491 471.724 596.26 472.403 598.138 473.38C600.14 474.421 600.518 475.419 600.518 475.84Z" stroke="white" stroke-width="5"/>
<path d="M596.447 461.081C596.447 461.366 596.177 462.236 594.362 463.183C592.668 464.067 590.155 464.688 587.242 464.688C584.329 464.688 581.815 464.067 580.121 463.183C578.307 462.236 578.037 461.366 578.037 461.081C578.037 460.796 578.307 459.926 580.121 458.98C581.815 458.096 584.329 457.474 587.242 457.474C590.155 457.474 592.668 458.096 594.362 458.98C596.177 459.926 596.447 460.796 596.447 461.081Z" stroke="white" stroke-width="5"/>
<path d="M591.358 447.341C591.358 447.49 591.195 448.232 589.567 449.084C588.058 449.875 585.801 450.439 583.17 450.439C580.54 450.439 578.282 449.875 576.773 449.084C575.146 448.232 574.983 447.49 574.983 447.341C574.983 447.191 575.146 446.449 576.773 445.597C578.282 444.806 580.54 444.242 583.17 444.242C585.801 444.242 588.058 444.806 589.567 445.597C591.195 446.449 591.358 447.191 591.358 447.341Z" stroke="white" stroke-width="5"/>
<path d="M588.304 435.126C588.304 435.276 588.141 436.018 586.514 436.87C585.005 437.661 582.748 438.225 580.117 438.225C577.486 438.225 575.229 437.661 573.72 436.87C572.093 436.018 571.93 435.276 571.93 435.126C571.93 434.977 572.093 434.235 573.72 433.383C575.229 432.592 577.486 432.028 580.117 432.028C582.748 432.028 585.005 432.592 586.514 433.383C588.141 434.235 588.304 434.977 588.304 435.126Z" stroke="white" stroke-width="5"/>
<path d="M585.251 422.913C585.251 423.062 585.088 423.804 583.46 424.656C581.952 425.447 579.694 426.011 577.063 426.011C574.433 426.011 572.175 425.447 570.666 424.656C569.039 423.804 568.876 423.062 568.876 422.913C568.876 422.763 569.039 422.021 570.666 421.169C572.175 420.378 574.433 419.814 577.063 419.814C579.694 419.814 581.952 420.378 583.46 421.169C585.088 422.021 585.251 422.763 585.251 422.913Z" stroke="white" stroke-width="5"/>
<path d="M555.18 476.858L550.38 446.623C550.217 445.592 550.874 444.608 551.889 444.364L560.774 442.232C561.884 441.965 562.992 442.681 563.206 443.802L577.063 516.554" stroke="white" stroke-width="5" stroke-linecap="round"/>
<path d="M584.697 558.285C613.875 549.803 681.494 527.852 720.579 479.403" stroke="white" stroke-width="5" stroke-linecap="round"/>
<path d="M611.161 381.181C619.643 378.297 634.063 371.003 642.205 354.208" stroke="white" stroke-width="5" stroke-linecap="round"/>
<path d="M746.047 400.068C741.514 402.136 733.982 408.177 729.726 411.856C729.221 412.293 728.438 412.128 728.155 411.524L697.545 346.193C697.056 345.148 698.431 344.242 699.198 345.104L746.481 398.297C746.974 398.852 746.722 399.76 746.047 400.068Z" fill="white"/>
<path d="M727.41 411.071C720.261 402.118 692.934 368.941 678.562 351.533C678.102 350.976 677.975 350.22 678.335 349.594C680.924 345.098 688.547 341.313 693.548 340.17C694.214 340.018 694.899 340.268 695.353 340.779L745.41 397.092C746.395 398.201 745.908 400.081 744.609 400.798C740.279 403.187 734.218 408.014 730.336 411.332C729.455 412.085 728.133 411.977 727.41 411.071Z" stroke="white" stroke-width="5" stroke-linecap="round"/>
<path d="M743.989 323.673C741.293 323.673 737.407 324.467 735.132 327.104C734.581 327.744 734.677 328.672 735.232 329.309C749.668 345.866 777.959 372.085 785.35 380.09C786.136 380.941 787.468 381.025 788.412 380.354C791.111 378.434 793.476 377.881 796.117 377.285C797.487 376.976 798.055 375.383 797.222 374.252L791.827 366.931" stroke="white" stroke-width="5" stroke-linecap="round"/>
<ellipse cx="851.371" cy="465.662" rx="25.446" ry="25.9549" fill="white"/>
<path d="M742.462 335.378C745.299 306.68 762.249 248.179 807.354 240.065C808.791 239.807 810.256 240.25 811.36 241.204C822.721 251.012 846.713 269.705 869.963 281.9C873.499 283.755 873.831 288.851 870.504 291.058C841 310.628 792.825 348.751 787.247 378.127" stroke="white" stroke-width="5" stroke-linecap="round"/>
<path d="M758.748 324.691C762.649 329.441 772.794 340.569 782.158 347.083" stroke="white" stroke-width="5" stroke-linecap="round"/>
<path d="M762.819 304.334C768.248 311.027 782.362 326.708 795.39 335.887" stroke="white" stroke-width="5" stroke-linecap="round"/>
<path d="M799.461 259.549C804.89 266.242 819.004 281.923 832.032 291.102" stroke="white" stroke-width="5" stroke-linecap="round"/>
<path d="M766.891 283.977C774.185 292.398 793.151 312.125 810.658 323.673" stroke="white" stroke-width="5" stroke-linecap="round"/>
<path d="M778.087 266.674C786.23 276.174 806.383 296.395 825.925 309.423" stroke="white" stroke-width="5" stroke-linecap="round"/>
<path d="M851.371 498.233C858.157 499.081 872.848 497.215 877.326 482.965" stroke="white" stroke-width="5" stroke-linecap="round"/>
<path d="M700.526 184.907C700.951 184.393 701.597 184.126 702.261 184.187C723.739 186.175 756.37 183.422 760.283 167.327C764.26 150.967 749.072 144.984 740.981 144.037C710.277 139.224 669.598 141.466 669.33 167.073" stroke="white" stroke-width="5" stroke-linecap="round"/>
<path d="M695.133 169.47C697.1 169.47 698.695 167.875 698.695 165.908C698.695 163.94 697.1 162.345 695.133 162.345C693.165 162.345 691.57 163.94 691.57 165.908C691.57 167.875 693.165 169.47 695.133 169.47Z" fill="white"/>
<path d="M719.052 165.908C719.052 167.638 717.67 169.47 715.49 169.47C713.309 169.47 711.927 167.638 711.927 165.908C711.927 164.178 713.309 162.345 715.49 162.345C717.67 162.345 719.052 164.178 719.052 165.908Z" fill="white"/>
<path d="M736.864 169.47C738.832 169.47 740.427 167.875 740.427 165.908C740.427 163.94 738.832 162.345 736.864 162.345C734.897 162.345 733.302 163.94 733.302 165.908C733.302 167.875 734.897 169.47 736.864 169.47Z" fill="white"/>
<path d="M1072.46 218.285C1072.31 218.802 1072.37 219.351 1072.62 219.823C1081.1 235.264 1089.67 260.629 1078.88 268.8C1067.92 277.101 1058.5 267.669 1055.16 261.916C1041.58 240.503 1030.04 209.344 1049.04 200.775" stroke="white" stroke-width="5" stroke-linecap="round"/>
<path d="M1051.4 221.954C1052.04 223.428 1053.75 224.104 1055.22 223.464C1056.7 222.824 1057.37 221.11 1056.73 219.637C1056.09 218.163 1054.38 217.487 1052.91 218.127C1051.43 218.767 1050.76 220.48 1051.4 221.954Z" fill="white"/>
<path d="M1061.85 238.714C1060.55 239.277 1058.73 238.838 1058.02 237.204C1057.31 235.571 1058.23 233.94 1059.53 233.377C1060.83 232.814 1062.65 233.253 1063.36 234.887C1064.07 236.52 1063.14 238.152 1061.85 238.714Z" fill="white"/>
<path d="M1064.97 253.217C1065.61 254.691 1067.33 255.367 1068.8 254.727C1070.27 254.087 1070.95 252.373 1070.31 250.899C1069.67 249.426 1067.96 248.75 1066.48 249.389C1065.01 250.029 1064.33 251.743 1064.97 253.217Z" fill="white"/>
<path d="M915.415 234.879C915.9 234.521 916.196 233.968 916.23 233.366C917.087 218.295 922.284 196.168 933.624 195.073C945.205 193.956 947.751 205.074 947.577 210.773C947.75 232.529 942.087 260.494 924.548 258.09" stroke="white" stroke-width="5" stroke-linecap="round"/>
<path d="M932.195 241.209C932.399 239.818 931.437 238.526 930.046 238.322C928.656 238.118 927.364 239.081 927.16 240.471C926.956 241.862 927.918 243.154 929.309 243.358C930.699 243.561 931.992 242.599 932.195 241.209Z" fill="white"/>
<path d="M932.112 224.223C933.335 224.402 934.486 225.569 934.261 227.11C934.035 228.651 932.597 229.438 931.374 229.258C930.151 229.079 929 227.913 929.225 226.372C929.451 224.831 930.889 224.044 932.112 224.223Z" fill="white"/>
<path d="M936.327 213.01C936.53 211.62 935.568 210.328 934.178 210.124C932.787 209.92 931.495 210.882 931.291 212.273C931.087 213.663 932.05 214.956 933.44 215.159C934.831 215.363 936.123 214.401 936.327 213.01Z" fill="white"/>
<path d="M959.461 322.162C951.806 319.726 950.793 326.286 951.401 331.421C951.507 332.316 950.475 333.042 949.667 332.643C945.977 330.821 940.773 329.528 939.104 333.867C937.146 338.959 950.108 344.775 957.589 347.323C958.075 347.489 958.606 347.241 958.808 346.77C966.056 329.885 962.299 323.33 959.461 322.162Z" fill="white"/>
<path d="M859.713 110.451C852.058 108.015 851.045 114.575 851.653 119.71C851.759 120.605 850.727 121.331 849.919 120.932C846.229 119.11 841.025 117.817 839.356 122.156C837.397 127.249 850.36 133.064 857.841 135.612C858.327 135.778 858.858 135.531 859.06 135.059C866.308 118.174 862.551 111.619 859.713 110.451Z" fill="white"/>
<path d="M1026.44 330.289L1103.29 317.566" stroke="white" stroke-width="5" stroke-linecap="round"/>
<path d="M985.726 185.247L1061.05 127.23" stroke="white" stroke-width="5" stroke-linecap="round"/>
<path d="M860.532 220.871L892.594 132.319" stroke="white" stroke-width="5" stroke-linecap="round"/>
<path d="M805.568 171.506L799.461 123.159" stroke="white" stroke-width="5" stroke-linecap="round"/>
</svg>
